<svg xmlns="http://www.w3.org/2000/svg" viewBox="0 0 358.01 117"><g id="Layer_2" data-name="Layer 2"><g id="Layer_1-2" data-name="Layer 1"><path d="M30.8,25.79c9.43,0,16.72,4.06,19.94,9.79h.48A40.31,40.31,0,0,1,51,30.09V27.7H66.26V89.54H51V86.68c0-2.75.12-4.42.24-5.73h-.48c-3.58,6.44-11.22,10.5-20.65,10.5C12.42,91.45,0,78,0,58.62S13.13,25.79,30.8,25.79ZM50.38,58.38c0-10.62-7-18-16.83-18s-16.72,7.41-16.72,18,7.05,18.27,16.72,18.27S50.38,69.13,50.38,58.38Z"/><path d="M96.8,50.38l7.76,3.94c7,3.58,13.13,8,13.13,18,0,11.22-8.59,19.1-23,19.1-13.61,0-20.53-7.64-22.8-15.76l12.41-6.92c1.08,3.94,4.3,9.07,10.51,9.07,3.94,0,6.57-2,6.57-5.61,0-2.51-1.68-4.18-6.81-6.57L88,62.44C81,59.1,74.59,55,74.59,44.05c0-9.91,9-18.26,20.78-18.26,12.17,0,18.74,6.21,22.44,13.61l-11.58,6.92C104,42.14,100.74,39,95.73,39c-3.35,0-5.85,1.79-5.85,4.89C89.88,46.68,91.67,47.87,96.8,50.38Z"/><path d="M159.45,91.45c-8.59,0-16-3.46-19-8.6h-.36a36.71,36.71,0,0,1,.24,5.38V117H123.76V27.7h15.4v2.86a49.72,49.72,0,0,1-.24,5.26h.36c3.94-6.09,11.58-10,20.89-10,17.31,0,29.85,13.49,29.85,32.83S177,91.45,159.45,91.45ZM139.76,58.5c0,10.74,6.92,18.15,16.71,18.15S173.3,69.24,173.3,58.5s-7-18.15-16.83-18.15S139.76,47.76,139.76,58.5Z"/><path d="M228.76,91.45c-19.58,0-33.19-13.85-33.19-32.83,0-19.22,13.73-32.83,33-32.83,18.15,0,30.32,13.73,30.32,32.83a25.15,25.15,0,0,1-.47,5.25H212.88c1.79,8.12,7.4,12.78,16,12.78,6.92,0,11.46-2.15,15.52-7.29l9.67,10.15C247.74,87.75,239.26,91.45,228.76,91.45Zm-15.88-38.2h29.61c-1.2-7.76-6.57-12.9-14.33-12.9C220,40.35,214.55,45.25,212.88,53.25Z"/><path d="M264.89,0H281.6V51.58a25,25,0,0,0,2.87.11c9.55,0,16.71-6.32,16.71-17.19,0-1.91,0-3.58-.23-6.8h16a59.75,59.75,0,0,1,.36,7c0,10-3.58,20.42-13.13,26.27l16.71,28.53H302.14L288.89,65.66c-1.2.12-2.51.12-3.82.12a34.7,34.7,0,0,1-3.47-.12V89.54H264.89Z"/><path d="M327,11.94h16.71V27.7H358V42H343.68V75h12.54V89.54h-12.8A16.44,16.44,0,0,1,327,73.09Z"/></g></g></svg>