<svg xmlns="http://www.w3.org/2000/svg" width="2000" height="2000" viewBox="0 0 400 400">
  <rect width="400" height="400" fill="#000000"/>

  <g transform="translate(28, 160)">
    <!-- Green square with ao monogram -->
    <rect x="0" y="0" width="56" height="56" fill="#1E8348"/>
    <g transform="translate(6, 6) scale(0.44)" fill="#E6E6E6">
      <!-- a -->
      <path d="M22.5,2c6.9,0,12.2,3,14.6,7.2h.35c-.1-1.5-.18-3.1-.18-4.2V2.9H48.5v45.3H37.27v-2.1c0-2,.09-3.2.18-4.2h-.35c-2.6,4.7-8.2,7.7-15.1,7.7C9.1,49.6,0,39.8,0,24.8S9.6,2,22.5,2ZM36.8,24.6c0-7.8-5.1-13.2-12.3-13.2s-12.2,5.4-12.2,13.2,5.2,13.4,12.2,13.4S36.8,32.4,36.8,24.6Z" transform="translate(0, 25)"/>
      <!-- o -->
      <path d="M25,0C38.8,0,50,11.2,50,25S38.8,50,25,50,0,38.8,0,25,11.2,0,25,0ZM25,38c7.2,0,13-5.8,13-13s-5.8-13-13-13-13,5.8-13,13S17.8,38,25,38Z" transform="translate(50, 25)"/>
    </g>

    <!-- aspekt/ops text - white on dark -->
    <text x="68" y="42" font-family="Inter, system-ui, -apple-system, BlinkMacSystemFont, sans-serif" font-size="38" font-weight="900" letter-spacing="-0.02em">
      <tspan fill="#E6E6E6">aspekt</tspan><tspan fill="#1E8348">/ops</tspan>
    </text>
  </g>
</svg>
